HIERARCHY
ROOT Hips
{
  OFFSET 0.00000 0.00000 0.05000
  CHANNELS 6 Xposition Yposition Zposition Zrotation Xrotation Yrotation
  JOINT J1
  {
    OFFSET 0.09850 2.29188 0.05000
    CHANNELS 3 Zrotation Xrotation Yrotation
    JOINT J0
    {
      OFFSET 0.13604 1.03686 0.05000
      CHANNELS 3 Zrotation Xrotation Yrotation
    }
    JOINT J2
    {
      OFFSET -0.71943 0.03834 0.05000
      CHANNELS 3 Zrotation Xrotation Yrotation
      JOINT J3
      {
        OFFSET -0.27920 -1.03632 0.05000
        CHANNELS 3 Zrotation Xrotation Yrotation
        JOINT J4
        {
          OFFSET -0.09077 -1.04488 0.05000
          CHANNELS 3 Zrotation Xrotation Yrotation
        }
      }
    }
    JOINT J5
    {
      OFFSET 0.72655 -0.04519 0.05000
      CHANNELS 3 Zrotation Xrotation Yrotation
      JOINT J6
      {
        OFFSET 0.22633 -1.11168 0.05000
        CHANNELS 3 Zrotation Xrotation Yrotation
        JOINT J7
        {
          OFFSET 0.07602 -1.06738 0.05000
          CHANNELS 3 Zrotation Xrotation Yrotation
        }
      }
    }
  }
  JOINT J9
  {
    OFFSET -0.45389 0.01507 0.05000
    CHANNELS 3 Zrotation Xrotation Yrotation
    JOINT J10
    {
      OFFSET 0.03044 -2.01210 0.05000
      CHANNELS 3 Zrotation Xrotation Yrotation
      JOINT J11
      {
        OFFSET 0.00000 0.00000 0.05000
        CHANNELS 3 Zrotation Xrotation Yrotation
      }
    }
  }
  JOINT J12
  {
    OFFSET 0.46166 0.01504 0.05000
    CHANNELS 3 Zrotation Xrotation Yrotation
    JOINT J13
    {
      OFFSET -0.06810 -1.91390 0.05000
      CHANNELS 3 Zrotation Xrotation Yrotation
      JOINT J14
      {
        OFFSET 0.00000 0.00000 0.05000
        CHANNELS 3 Zrotation Xrotation Yrotation
      }
    }
  }
}
MOTION
Frames: 45
Frame Time: 0.033333
2.32750 -5.45197 0.05000 0 0 0 87.54 0.00 0.00 82.53 0.00 0.00 176.95 0.00 0.00 -105.08 0.00 0.00 -94.96 0.00 0.00 -3.56 0.00 0.00 -78.49 0.00 0.00 -85.93 0.00 0.00 178.10 0.00 0.00 -89.13 0.00 0.00 104.34 0.00 0.00 1.87 0.00 0.00 -92.04 0.00 0.00 110.31 0.00 0.00
2.33117 -5.45201 0.05000 0 0 0 87.87 0.00 0.00 82.88 0.00 0.00 176.83 0.00 0.00 -104.44 0.00 0.00 -94.55 0.00 0.00 -3.14 0.00 0.00 -78.43 0.00 0.00 -85.74 0.00 0.00 178.57 0.00 0.00 -89.01 0.00 0.00 104.40 0.00 0.00 2.10 0.00 0.00 -92.04 0.00 0.00 110.35 0.00 0.00
2.33352 -5.44752 0.05000 0 0 0 88.18 0.00 0.00 83.07 0.00 0.00 177.10 0.00 0.00 -103.99 0.00 0.00 -94.11 0.00 0.00 -2.87 0.00 0.00 -78.62 0.00 0.00 -85.16 0.00 0.00 179.42 0.00 0.00 -88.94 0.00 0.00 104.45 0.00 0.00 1.70 0.00 0.00 -92.06 0.00 0.00 110.38 0.00 0.00
2.33805 -5.44752 0.05000 0 0 0 88.75 0.00 0.00 83.62 0.00 0.00 177.14 0.00 0.00 -102.95 0.00 0.00 -93.31 0.00 0.00 -2.50 0.00 0.00 -79.02 0.00 0.00 -84.33 0.00 0.00 -179.44 0.00 0.00 -88.66 0.00 0.00 104.58 0.00 0.00 1.72 0.00 0.00 -92.08 0.00 0.00 110.46 0.00 0.00
2.34253 -5.44299 0.05000 0 0 0 89.32 0.00 0.00 84.10 0.00 0.00 177.17 0.00 0.00 -102.29 0.00 0.00 -92.82 0.00 0.00 -2.14 0.00 0.00 -79.22 0.00 0.00 -83.53 0.00 0.00 -179.42 0.00 0.00 -88.65 0.00 0.00 104.63 0.00 0.00 1.17 0.00 0.00 -92.21 0.00 0.00 110.46 0.00 0.00
2.34274 -5.43398 0.05000 0 0 0 89.66 0.00 0.00 84.58 0.00 0.00 177.19 0.00 0.00 -102.06 0.00 0.00 -92.57 0.00 0.00 -1.79 0.00 0.00 -79.36 0.00 0.00 -83.58 0.00 0.00 -178.86 0.00 0.00 -88.65 0.00 0.00 104.64 0.00 0.00 0.61 0.00 0.00 -92.21 0.00 0.00 110.47 0.00 0.00
2.34728 -5.42949 0.05000 0 0 0 90.11 0.00 0.00 84.82 0.00 0.00 177.55 0.00 0.00 -102.12 0.00 0.00 -92.36 0.00 0.00 -1.77 0.00 0.00 -79.31 0.00 0.00 -83.82 0.00 0.00 -178.33 0.00 0.00 -88.66 0.00 0.00 104.64 0.00 0.00 0.06 0.00 0.00 -92.22 0.00 0.00 110.47 0.00 0.00
2.35176 -5.42946 0.05000 0 0 0 90.45 0.00 0.00 85.30 0.00 0.00 177.57 0.00 0.00 -102.24 0.00 0.00 -92.60 0.00 0.00 -1.75 0.00 0.00 -78.68 0.00 0.00 -84.99 0.00 0.00 -178.88 0.00 0.00 -88.66 0.00 0.00 104.66 0.00 0.00 0.05 0.00 0.00 -92.36 0.00 0.00 110.47 0.00 0.00
2.35628 -5.42503 0.05000 0 0 0 90.68 0.00 0.00 85.77 0.00 0.00 177.59 0.00 0.00 -102.17 0.00 0.00 -93.27 0.00 0.00 -1.76 0.00 0.00 -77.54 0.00 0.00 -86.30 0.00 0.00 -178.36 0.00 0.00 -88.67 0.00 0.00 104.66 0.00 0.00 0.06 0.00 0.00 -92.62 0.00 0.00 110.45 0.00 0.00
2.35624 -5.42046 0.05000 0 0 0 90.79 0.00 0.00 86.02 0.00 0.00 177.90 0.00 0.00 -102.57 0.00 0.00 -94.15 0.00 0.00 -1.76 0.00 0.00 -76.70 0.00 0.00 -87.41 0.00 0.00 -177.81 0.00 0.00 -88.66 0.00 0.00 104.69 0.00 0.00 0.63 0.00 0.00 -92.51 0.00 0.00 110.50 0.00 0.00
2.35612 -5.42036 0.05000 0 0 0 90.90 0.00 0.00 86.03 0.00 0.00 177.89 0.00 0.00 -102.63 0.00 0.00 -95.53 0.00 0.00 -1.76 0.00 0.00 -76.39 0.00 0.00 -87.67 0.00 0.00 -178.34 0.00 0.00 -88.66 0.00 0.00 104.69 0.00 0.00 1.18 0.00 0.00 -92.52 0.00 0.00 110.52 0.00 0.00
2.34715 -5.42039 0.05000 0 0 0 90.56 0.00 0.00 86.51 0.00 0.00 177.88 0.00 0.00 -103.07 0.00 0.00 -96.95 0.00 0.00 -1.76 0.00 0.00 -76.39 0.00 0.00 -87.18 0.00 0.00 -178.30 0.00 0.00 -88.65 0.00 0.00 104.70 0.00 0.00 1.18 0.00 0.00 -92.52 0.00 0.00 110.51 0.00 0.00
2.33807 -5.42031 0.05000 0 0 0 90.22 0.00 0.00 86.51 0.00 0.00 177.87 0.00 0.00 -103.81 0.00 0.00 -98.68 0.00 0.00 -1.77 0.00 0.00 -76.22 0.00 0.00 -85.77 0.00 0.00 -178.29 0.00 0.00 -88.52 0.00 0.00 104.70 0.00 0.00 1.73 0.00 0.00 -92.52 0.00 0.00 110.50 0.00 0.00
2.32912 -5.42024 0.05000 0 0 0 89.88 0.00 0.00 86.52 0.00 0.00 178.18 0.00 0.00 -105.56 0.00 0.00 -101.16 0.00 0.00 -1.77 0.00 0.00 -75.97 0.00 0.00 -83.62 0.00 0.00 -178.83 0.00 0.00 -88.51 0.00 0.00 104.69 0.00 0.00 2.26 0.00 0.00 -92.38 0.00 0.00 110.51 0.00 0.00
2.32464 -5.42020 0.05000 0 0 0 89.66 0.00 0.00 86.51 0.00 0.00 177.81 0.00 0.00 -107.72 0.00 0.00 -104.72 0.00 0.00 -1.77 0.00 0.00 -75.39 0.00 0.00 -80.13 0.00 0.00 -179.39 0.00 0.00 -88.52 0.00 0.00 104.64 0.00 0.00 2.78 0.00 0.00 -92.37 0.00 0.00 110.50 0.00 0.00
2.32017 -5.41574 0.05000 0 0 0 89.32 0.00 0.00 86.51 0.00 0.00 177.45 0.00 0.00 -110.69 0.00 0.00 -109.24 0.00 0.00 -1.80 0.00 0.00 -73.55 0.00 0.00 -75.28 0.00 0.00 -178.84 0.00 0.00 -88.39 0.00 0.00 104.64 0.00 0.00 2.77 0.00 0.00 -92.49 0.00 0.00 110.45 0.00 0.00
2.32017 -5.41559 0.05000 0 0 0 89.20 0.00 0.00 86.28 0.00 0.00 177.07 0.00 0.00 -114.10 0.00 0.00 -115.75 0.00 0.00 -1.82 0.00 0.00 -70.31 0.00 0.00 -69.51 0.00 0.00 -179.39 0.00 0.00 -88.39 0.00 0.00 104.61 0.00 0.00 3.28 0.00 0.00 -92.48 0.00 0.00 110.47 0.00 0.00
2.32033 -5.41561 0.05000 0 0 0 88.98 0.00 0.00 86.52 0.00 0.00 176.73 0.00 0.00 -118.13 0.00 0.00 -124.58 0.00 0.00 -1.84 0.00 0.00 -66.61 0.00 0.00 -60.96 0.00 0.00 -179.38 0.00 0.00 -88.52 0.00 0.00 104.60 0.00 0.00 3.28 0.00 0.00 -92.47 0.00 0.00 110.45 0.00 0.00
2.32475 -5.42007 0.05000 0 0 0 88.87 0.00 0.00 86.75 0.00 0.00 176.42 0.00 0.00 -122.57 0.00 0.00 -135.31 0.00 0.00 -1.86 0.00 0.00 -62.13 0.00 0.00 -47.95 0.00 0.00 -179.38 0.00 0.00 -88.53 0.00 0.00 104.62 0.00 0.00 3.30 0.00 0.00 -92.34 0.00 0.00 110.46 0.00 0.00
2.32475 -5.42910 0.05000 0 0 0 88.65 0.00 0.00 86.75 0.00 0.00 176.13 0.00 0.00 -127.99 0.00 0.00 -152.49 0.00 0.00 -1.87 0.00 0.00 -56.92 0.00 0.00 -30.19 0.00 0.00 -179.38 0.00 0.00 -88.39 0.00 0.00 104.65 0.00 0.00 3.29 0.00 0.00 -92.33 0.00 0.00 110.43 0.00 0.00
2.32484 -5.43363 0.05000 0 0 0 88.54 0.00 0.00 86.74 0.00 0.00 175.81 0.00 0.00 -133.95 0.00 0.00 -179.39 0.00 0.00 -2.21 0.00 0.00 -51.39 0.00 0.00 -11.85 0.00 0.00 -179.94 0.00 0.00 -88.39 0.00 0.00 104.67 0.00 0.00 3.82 0.00 0.00 -92.20 0.00 0.00 110.46 0.00 0.00
2.32939 -5.43376 0.05000 0 0 0 88.43 0.00 0.00 86.98 0.00 0.00 175.50 0.00 0.00 -140.66 0.00 0.00 147.44 0.00 0.00 -2.55 0.00 0.00 -46.12 0.00 0.00 8.63 0.00 0.00 -179.95 0.00 0.00 -88.39 0.00 0.00 104.70 0.00 0.00 3.83 0.00 0.00 -92.32 0.00 0.00 110.44 0.00 0.00
2.33381 -5.44281 0.05000 0 0 0 88.33 0.00 0.00 87.21 0.00 0.00 175.50 0.00 0.00 -147.54 0.00 0.00 123.53 0.00 0.00 -2.89 0.00 0.00 -40.57 0.00 0.00 28.61 0.00 0.00 179.47 0.00 0.00 -88.12 0.00 0.00 104.73 0.00 0.00 3.83 0.00 0.00 -92.19 0.00 0.00 110.49 0.00 0.00
2.33832 -5.44746 0.05000 0 0 0 88.34 0.00 0.00 87.20 0.00 0.00 175.51 0.00 0.00 -153.99 0.00 0.00 109.82 0.00 0.00 -2.89 0.00 0.00 -34.63 0.00 0.00 44.30 0.00 0.00 179.46 0.00 0.00 -87.99 0.00 0.00 104.75 0.00 0.00 3.29 0.00 0.00 -92.19 0.00 0.00 110.50 0.00 0.00
2.34740 -5.44754 0.05000 0 0 0 88.45 0.00 0.00 87.41 0.00 0.00 175.85 0.00 0.00 -160.24 0.00 0.00 100.18 0.00 0.00 -2.90 0.00 0.00 -29.09 0.00 0.00 57.58 0.00 0.00 178.91 0.00 0.00 -88.01 0.00 0.00 104.76 0.00 0.00 2.22 0.00 0.00 -92.33 0.00 0.00 110.52 0.00 0.00
2.35632 -5.44754 0.05000 0 0 0 88.46 0.00 0.00 87.88 0.00 0.00 176.21 0.00 0.00 -166.26 0.00 0.00 93.32 0.00 0.00 -2.92 0.00 0.00 -23.49 0.00 0.00 67.10 0.00 0.00 178.37 0.00 0.00 -88.02 0.00 0.00 104.77 0.00 0.00 1.68 0.00 0.00 -92.46 0.00 0.00 110.54 0.00 0.00
2.36095 -5.44752 0.05000 0 0 0 88.47 0.00 0.00 87.85 0.00 0.00 176.60 0.00 0.00 -171.26 0.00 0.00 87.96 0.00 0.00 -2.95 0.00 0.00 -17.87 0.00 0.00 75.27 0.00 0.00 178.37 0.00 0.00 -87.90 0.00 0.00 104.80 0.00 0.00 1.12 0.00 0.00 -92.48 0.00 0.00 110.58 0.00 0.00
2.36990 -5.44299 0.05000 0 0 0 88.69 0.00 0.00 87.57 0.00 0.00 176.62 0.00 0.00 -175.74 0.00 0.00 83.21 0.00 0.00 -2.58 0.00 0.00 -12.83 0.00 0.00 82.24 0.00 0.00 178.35 0.00 0.00 -88.03 0.00 0.00 104.82 0.00 0.00 0.58 0.00 0.00 -92.63 0.00 0.00 110.59 0.00 0.00
2.37444 -5.44741 0.05000 0 0 0 88.70 0.00 0.00 87.54 0.00 0.00 176.61 0.00 0.00 -179.78 0.00 0.00 78.57 0.00 0.00 -2.92 0.00 0.00 -8.02 0.00 0.00 88.87 0.00 0.00 177.32 0.00 0.00 -88.04 0.00 0.00 104.81 0.00 0.00 0.56 0.00 0.00 -92.63 0.00 0.00 110.61 0.00 0.00
2.37889 -5.44746 0.05000 0 0 0 88.60 0.00 0.00 87.78 0.00 0.00 176.61 0.00 0.00 176.71 0.00 0.00 74.49 0.00 0.00 -2.90 0.00 0.00 -3.86 0.00 0.00 94.76 0.00 0.00 177.33 0.00 0.00 -87.92 0.00 0.00 104.84 0.00 0.00 0.55 0.00 0.00 -92.63 0.00 0.00 110.63 0.00 0.00
2.38341 -5.45196 0.05000 0 0 0 88.60 0.00 0.00 87.77 0.00 0.00 176.92 0.00 0.00 173.69 0.00 0.00 70.60 0.00 0.00 -2.52 0.00 0.00 -0.95 0.00 0.00 100.32 0.00 0.00 176.83 0.00 0.00 -87.92 0.00 0.00 104.84 0.00 0.00 -0.01 0.00 0.00 -92.64 0.00 0.00 110.65 0.00 0.00
2.39224 -5.45195 0.05000 0 0 0 88.71 0.00 0.00 87.75 0.00 0.00 176.91 0.00 0.00 171.41 0.00 0.00 66.58 0.00 0.00 -2.15 0.00 0.00 1.44 0.00 0.00 105.45 0.00 0.00 176.33 0.00 0.00 -87.92 0.00 0.00 104.87 0.00 0.00 -0.57 0.00 0.00 -92.64 0.00 0.00 110.67 0.00 0.00
2.39243 -5.44750 0.05000 0 0 0 88.61 0.00 0.00 87.73 0.00 0.00 176.91 0.00 0.00 169.39 0.00 0.00 62.64 0.00 0.00 -1.79 0.00 0.00 3.38 0.00 0.00 109.84 0.00 0.00 176.33 0.00 0.00 -87.93 0.00 0.00 104.87 0.00 0.00 -1.11 0.00 0.00 -92.64 0.00 0.00 110.70 0.00 0.00
2.39264 -5.43841 0.05000 0 0 0 88.50 0.00 0.00 87.72 0.00 0.00 177.25 0.00 0.00 167.78 0.00 0.00 59.63 0.00 0.00 -1.45 0.00 0.00 4.59 0.00 0.00 114.33 0.00 0.00 176.29 0.00 0.00 -87.93 0.00 0.00 104.93 0.00 0.00 -1.09 0.00 0.00 -92.91 0.00 0.00 110.72 0.00 0.00
2.39709 -5.42479 0.05000 0 0 0 88.60 0.00 0.00 87.42 0.00 0.00 177.59 0.00 0.00 166.34 0.00 0.00 56.83 0.00 0.00 -1.44 0.00 0.00 6.02 0.00 0.00 118.57 0.00 0.00 175.76 0.00 0.00 -88.06 0.00 0.00 104.95 0.00 0.00 -1.63 0.00 0.00 -93.06 0.00 0.00 110.76 0.00 0.00
2.40156 -5.41121 0.05000 0 0 0 88.70 0.00 0.00 87.13 0.00 0.00 177.60 0.00 0.00 165.16 0.00 0.00 54.23 0.00 0.00 -1.43 0.00 0.00 7.73 0.00 0.00 121.91 0.00 0.00 175.76 0.00 0.00 -88.07 0.00 0.00 105.00 0.00 0.00 -1.63 0.00 0.00 -93.19 0.00 0.00 110.78 0.00 0.00
2.39727 -5.40661 0.05000 0 0 0 88.59 0.00 0.00 86.82 0.00 0.00 177.92 0.00 0.00 164.01 0.00 0.00 51.89 0.00 0.00 -1.44 0.00 0.00 9.14 0.00 0.00 125.44 0.00 0.00 175.21 0.00 0.00 -88.07 0.00 0.00 105.02 0.00 0.00 -1.09 0.00 0.00 -93.19 0.00 0.00 110.80 0.00 0.00
2.40163 -5.40196 0.05000 0 0 0 88.70 0.00 0.00 86.51 0.00 0.00 178.26 0.00 0.00 163.22 0.00 0.00 50.07 0.00 0.00 -1.78 0.00 0.00 10.27 0.00 0.00 128.48 0.00 0.00 174.74 0.00 0.00 -88.07 0.00 0.00 105.04 0.00 0.00 -0.57 0.00 0.00 -93.32 0.00 0.00 110.82 0.00 0.00
2.40162 -5.39750 0.05000 0 0 0 88.70 0.00 0.00 86.21 0.00 0.00 178.27 0.00 0.00 162.72 0.00 0.00 48.41 0.00 0.00 -1.78 0.00 0.00 11.19 0.00 0.00 130.91 0.00 0.00 175.26 0.00 0.00 -88.06 0.00 0.00 105.05 0.00 0.00 -0.57 0.00 0.00 -93.18 0.00 0.00 110.83 0.00 0.00
2.39718 -5.39748 0.05000 0 0 0 88.59 0.00 0.00 85.92 0.00 0.00 178.27 0.00 0.00 162.51 0.00 0.00 47.48 0.00 0.00 -1.78 0.00 0.00 11.62 0.00 0.00 132.96 0.00 0.00 175.75 0.00 0.00 -88.05 0.00 0.00 105.06 0.00 0.00 -0.03 0.00 0.00 -93.04 0.00 0.00 110.83 0.00 0.00
2.39286 -5.40198 0.05000 0 0 0 88.50 0.00 0.00 85.64 0.00 0.00 178.26 0.00 0.00 162.51 0.00 0.00 46.91 0.00 0.00 -1.79 0.00 0.00 11.76 0.00 0.00 134.59 0.00 0.00 176.24 0.00 0.00 -88.03 0.00 0.00 105.07 0.00 0.00 -0.03 0.00 0.00 -92.91 0.00 0.00 110.83 0.00 0.00
2.39718 -5.40196 0.05000 0 0 0 88.60 0.00 0.00 85.63 0.00 0.00 178.27 0.00 0.00 162.72 0.00 0.00 46.73 0.00 0.00 -1.79 0.00 0.00 11.76 0.00 0.00 135.40 0.00 0.00 176.79 0.00 0.00 -88.02 0.00 0.00 105.08 0.00 0.00 -0.02 0.00 0.00 -92.91 0.00 0.00 110.83 0.00 0.00
2.39717 -5.40196 0.05000 0 0 0 88.60 0.00 0.00 85.64 0.00 0.00 178.27 0.00 0.00 163.01 0.00 0.00 46.74 0.00 0.00 -1.79 0.00 0.00 11.75 0.00 0.00 135.81 0.00 0.00 176.79 0.00 0.00 -88.01 0.00 0.00 105.09 0.00 0.00 -0.03 0.00 0.00 -92.78 0.00 0.00 110.84 0.00 0.00
2.40162 -5.39747 0.05000 0 0 0 88.70 0.00 0.00 85.65 0.00 0.00 178.26 0.00 0.00 163.30 0.00 0.00 46.93 0.00 0.00 -1.78 0.00 0.00 11.75 0.00 0.00 136.01 0.00 0.00 176.82 0.00 0.00 -88.01 0.00 0.00 105.11 0.00 0.00 -0.57 0.00 0.00 -92.92 0.00 0.00 110.85 0.00 0.00
2.40611 -5.39747 0.05000 0 0 0 88.81 0.00 0.00 85.93 0.00 0.00 178.27 0.00 0.00 163.73 0.00 0.00 46.93 0.00 0.00 -1.78 0.00 0.00 11.75 0.00 0.00 135.83 0.00 0.00 176.33 0.00 0.00 -88.01 0.00 0.00 105.12 0.00 0.00 -1.11 0.00 0.00 -93.08 0.00 0.00 110.88 0.00 0.00
